<svg viewBox="0 0 288 64" fill="none" xmlns="http://www.w3.org/2000/svg">
<path fill-rule="evenodd" clip-rule="evenodd" d="M23.3398 0.874356C22.7952 0.315342 22.0428 0 21.2617 0H2.92375C1.31139 0 0 1.31153 0 2.92408V18.1823C0 19.7948 1.30422 21.1064 2.92375 21.1064H13.6155C16.2311 21.1064 17.5282 24.2813 15.665 26.1088L0.874258 40.6504C0.315306 41.2022 0 41.9548 0 42.7359V61.0759C0 62.6885 1.30422 64 2.92375 64H18.1803C19.7926 64 21.104 62.6885 21.104 61.0759V24.0233C21.104 22.4107 22.4082 21.0992 24.0278 21.0992H42.896V61.0688C42.896 62.6813 44.2002 63.9928 45.8197 63.9928H61.0763C62.6886 63.9928 64 62.6813 64 61.0688V42.7359C64 41.9548 63.6847 41.2022 63.1257 40.6504L48.3422 26.1017C46.479 24.267 47.7761 21.0992 50.3917 21.0992H61.0763C62.6886 21.0992 64 19.7877 64 18.1751V2.92408C63.9928 1.31153 62.6815 0 61.0691 0H45.8126C44.2002 0 42.8888 1.31153 42.8888 2.92408V13.6099C42.8888 16.2258 39.7143 17.523 37.8869 15.6596L23.3398 0.874356Z" fill="#E9544E"/>
<path fill-rule="evenodd" clip-rule="evenodd" d="M103.677 15.749H95.9945H84.3217C84.0519 15.749 83.8389 15.9609 83.8389 16.2293V20.0222C83.8389 20.2906 84.0519 20.5025 84.3217 20.5025H90.9178C91.1876 20.5025 91.4007 20.7144 91.4007 20.9828V47.5687C91.4007 47.8371 91.6137 48.049 91.8835 48.049H96.2075C96.4773 48.049 96.6904 47.8371 96.6904 47.5687V20.9828C96.6904 20.7144 96.9034 20.5025 97.1732 20.5025H103.677C103.947 20.5025 104.16 20.2906 104.16 20.0222V16.2293C104.16 15.968 103.94 15.749 103.677 15.749Z" fill="white"/>
<path fill-rule="evenodd" clip-rule="evenodd" d="M117.203 15.749H112.787C112.517 15.749 112.304 15.9609 112.304 16.2293V47.5687C112.304 47.8371 112.524 48.049 112.787 48.049H117.203C117.473 48.049 117.686 47.8371 117.686 47.5687V16.2293C117.686 15.968 117.473 15.749 117.203 15.749Z" fill="white"/>
<path fill-rule="evenodd" clip-rule="evenodd" d="M145.654 15.749H137.971H126.298C126.028 15.749 125.815 15.9609 125.815 16.2293V20.0222C125.815 20.2906 126.028 20.5025 126.298 20.5025H132.894C133.164 20.5025 133.377 20.7144 133.377 20.9828V47.5687C133.377 47.8371 133.59 48.049 133.86 48.049H138.184C138.454 48.049 138.667 47.8371 138.667 47.5687V20.9828C138.667 20.7144 138.88 20.5025 139.15 20.5025H145.654C145.923 20.5025 146.136 20.2906 146.136 20.0222V16.2293C146.136 15.968 145.916 15.749 145.654 15.749Z" fill="white"/>
<path fill-rule="evenodd" clip-rule="evenodd" d="M203.876 15.749H199.552C199.282 15.749 199.069 15.9609 199.069 16.2293V37.0657C199.069 37.5813 198.359 37.7367 198.146 37.2635L188.774 16.2646C188.589 15.8973 188.312 15.7561 187.936 15.7561H182.433C182.163 15.7561 181.95 15.968 181.95 16.2364V47.5758C181.95 47.8442 182.163 48.0561 182.433 48.0561H186.757C187.027 48.0561 187.24 47.8442 187.24 47.5758V26.6969C187.24 26.1813 187.95 26.0259 188.163 26.4992L197.535 47.5404C197.72 47.9077 197.997 48.049 198.373 48.049H203.876C204.139 48.049 204.359 47.8371 204.359 47.5687V16.2293C204.359 15.968 204.139 15.749 203.876 15.749Z" fill="white"/>
<path fill-rule="evenodd" clip-rule="evenodd" d="M218.865 15.749H214.449C214.179 15.749 213.966 15.9609 213.966 16.2293V47.5687C213.966 47.8371 214.186 48.049 214.449 48.049H218.865C219.135 48.049 219.348 47.8371 219.348 47.5687V16.2293C219.348 15.968 219.135 15.749 218.865 15.749Z" fill="white"/>
<path fill-rule="evenodd" clip-rule="evenodd" d="M287.518 15.749H281.276C280.815 15.749 280.488 15.9821 280.346 16.4412L274.226 37.2776C274.091 37.7367 273.431 37.7367 273.296 37.2776L267.261 16.4412C267.119 15.9821 266.799 15.749 266.33 15.749H260.089C259.819 15.749 259.606 15.9609 259.606 16.2293V47.5687C259.606 47.8371 259.819 48.049 260.089 48.049H264.413C264.683 48.049 264.896 47.8371 264.896 47.5687V27.9613C264.896 27.4033 265.698 27.2973 265.848 27.8341L271.208 47.3568C271.35 47.8159 271.67 48.049 272.089 48.049H275.518C275.937 48.049 276.264 47.8159 276.399 47.3568L281.759 27.8341C281.908 27.2903 282.711 27.4033 282.711 27.9613V47.5687C282.711 47.8371 282.931 48.049 283.193 48.049H287.518C287.787 48.049 288 47.8371 288 47.5687V16.2293C288 15.968 287.787 15.749 287.518 15.749Z" fill="white"/>
<path fill-rule="evenodd" clip-rule="evenodd" d="M165.123 16.4916C164.981 16.0325 164.661 15.7571 164.242 15.7571H159.464C159.045 15.7571 158.718 16.0325 158.583 16.4916L149.488 47.1812C149.346 47.6898 149.63 48.0571 150.091 48.0571H153.847C154.309 48.0571 154.593 47.6898 154.728 47.1812L156.063 42.5548C156.127 42.3429 156.318 42.2017 156.538 42.2087L162.368 42.3217C162.638 42.3288 162.858 42.1098 162.858 41.8414V38.1545C162.858 37.8861 162.645 37.6742 162.375 37.6742H158.108C157.788 37.6742 157.554 37.3704 157.646 37.0597L161.416 23.8444C161.551 23.3782 162.212 23.3782 162.346 23.8444L166.287 37.6742L167.622 42.463L169.028 47.1812C169.17 47.6898 169.447 48.0571 169.908 48.0571H173.664C174.126 48.0571 174.403 47.6898 174.268 47.1812L165.123 16.4916Z" fill="white"/>
<path fill-rule="evenodd" clip-rule="evenodd" d="M242.736 16.4916C242.594 16.0325 242.274 15.7571 241.856 15.7571H237.077C236.658 15.7571 236.332 16.0325 236.197 16.4916L227.101 47.1812C226.959 47.6898 227.243 48.0571 227.705 48.0571H231.461C231.922 48.0571 232.206 47.6898 232.341 47.1812L233.676 42.5548C233.74 42.3429 233.932 42.2017 234.152 42.2087L239.981 42.3217C240.251 42.3288 240.471 42.1098 240.471 41.8414V38.1545C240.471 37.8861 240.258 37.6742 239.988 37.6742H235.721C235.401 37.6742 235.167 37.3704 235.259 37.0597L239.03 23.8444C239.165 23.3782 239.825 23.3782 239.96 23.8444L243.9 37.6742L245.235 42.463L246.641 47.1812C246.783 47.6898 247.06 48.0571 247.522 48.0571H251.278C251.739 48.0571 252.023 47.6898 251.881 47.1812L242.736 16.4916Z" fill="white"/>
</svg>
